# xmcd
# 
# Track frame offsets:
#     151
#     40133
#     62839
#     93680
#     116735
#     135293
#     157494
#     174564
#     196800
#     217304
#     234017
#     255058
#     276149
#     296329
#     314904
# 
# Disc length: 4469
# 
# Revision: 0
# Processed by: cddbd v1.5.2PL0 Copyright (c) Steve Scherf et al.
# Submitted via: BonkEnc v1.0.8
# 
DISCID=df11730f
DTITLE=高中正義 - Trade Wind
DYEAR=1998
DGENRE=Fusion
TTITLE0=Tropic Birds
TTITLE1=Ready To Fly
TTITLE2=伊豆甘夏納豆売り
TTITLE3=Blue Lagoon
TTITLE4=Rainy Day Blue
TTITLE5=Early Bird
TTITLE6=Finger Dancin’
TTITLE7=Alone
TTITLE8=Fair Wind,A
TTITLE9=Saudade
TTITLE10=Jumping Take Off
TTITLE11=渚・モデラート
TTITLE12=Biscayne Blue
TTITLE13=Ballade 2U
TTITLE14=Victory Goal
EXTD=
EXTT0=
EXTT1=
EXTT2=
EXTT3=
EXTT4=
EXTT5=
EXTT6=
EXTT7=
EXTT8=
EXTT9=
EXTT10=
EXTT11=
EXTT12=
EXTT13=
EXTT14=
PLAYORDER=
